<?xml version="1.0" encoding="utf-8"?>
<!-- Generator: Adobe Illustrator 14.0.0, SVG Export Plug-In . SVG Version: 6.00 Build 43363)  -->
<!DOCTYPE svg PUBLIC "-//W3C//DTD SVG 1.1//EN" "http://www.w3.org/Graphics/SVG/1.1/DTD/svg11.dtd">
<svg version="1.1" id="Layer_1" xmlns="http://www.w3.org/2000/svg" xmlns:xlink="http://www.w3.org/1999/xlink" x="0px" y="0px"
	 width="150px" height="150px" viewBox="0 0 150 150" enable-background="new 0 0 150 150" xml:space="preserve">
<g>
	<g>
		<path fill="#92D14D" stroke="#080F08" stroke-width="3" d="M3.027,4.347h36.509v6.048h-2.577c-3.83,0-6.273,0.322-7.331,0.968
			c-1.058,0.644-1.586,1.666-1.586,3.063c0,0.968,0.37,2.5,1.108,4.596l0.444,1.532l22.247,75.719l19.527-69.94
			c-2.277-7.943-4.019-12.584-5.223-13.927c-1.205-1.34-3.601-2.011-7.189-2.011h-6.635V4.347H97.92v6.048h-4.726
			c-4.136,0-6.818,0.362-8.049,1.088c-1.231,0.725-1.846,1.814-1.846,3.266c0,1.128,0.147,2.177,0.443,3.144l22.639,78.38
			l18.64-67.815c0.739-2.634,1.108-5.162,1.108-7.581c0-3.601-0.75-6.25-2.251-7.942c-1.501-1.693-3.751-2.54-6.75-2.54h-3.394
			V4.347h34.292v6.048c-3.008,0.43-5.4,1.223-7.176,2.378c-1.775,1.157-3.315,2.81-4.622,4.96
			c-1.308,2.149-2.626,5.725-3.956,10.725l-26.935,97.975h-5.259L74.94,38.787l-23.986,87.646h-5.536L14.64,20.555
			c-1.233-4.139-2.626-6.866-4.179-8.184c-1.554-1.317-4.032-1.976-7.434-1.976V4.347z"/>
	</g>
</g>
</svg>
